<svg xmlns="http://www.w3.org/2000/svg" viewBox="0 0 24 24" fill="none">
    <rect width="24" height="24" fill="#e4e6eb"/>
    <path fill-rule="evenodd" clip-rule="evenodd" d="M12 4C14.21 4 16 5.79 16 8C16 10.21 14.21 12 12 12C9.79 12 8 10.21 8 8C8 5.79 9.79 4 12 4ZM12 14C9.33 14 4 15.34 4 18V20H20V18C20 15.34 14.67 14 12 14Z" fill="#ffffff"/>
    <path d="M7 8C7 5.23858 9.23858 3 12 3C14.7614 3 17 5.23858 17 8V9H18V8C18 4.68629 15.3137 2 12 2C8.68629 2 6 4.68629 6 8V9H7V8Z" fill="#ffffff"/>
    <path d="M12 13C13.6569 13 15 11.6569 15 10H9C9 11.6569 10.3431 13 12 13Z" fill="#ffffff"/>
</svg>
